<?xml version="1.0" encoding="UTF-8"?>
<svg xmlns="http://www.w3.org/2000/svg" xmlns:xlink="http://www.w3.org/1999/xlink" width="24pt" height="33pt" viewBox="0 0 24 33" version="1.1">
<g id="surface4">
<path style="fill:none;stroke-width:2.439304;stroke-linecap:butt;stroke-linejoin:miter;stroke:rgb(0%,0%,0%);stroke-opacity:1;stroke-miterlimit:4;" d="M 96.339124 52.652341 L 22.793776 106.176881 L 22.793776 179.733586 L 96.339124 233.258127 L 169.918646 179.733586 L 169.918646 106.176881 Z M 96.339124 52.652341 " transform="matrix(0.1143,0,0,0.111149,0.988416,0.616476)"/>
<path style="fill-rule:nonzero;fill:rgb(0%,0%,0%);fill-opacity:1;stroke-width:0.668807;stroke-linecap:butt;stroke-linejoin:miter;stroke:rgb(0%,0%,0%);stroke-opacity:1;stroke-miterlimit:4;" d="M 86.325747 72.71965 L 86.325747 213.190817 L 76.278195 206.478284 L 76.278195 79.432183 Z M 86.325747 72.71965 " transform="matrix(0.1143,0,0,0.111149,0.988416,0.616476)"/>
<path style="fill-rule:nonzero;fill:rgb(0%,0%,0%);fill-opacity:1;stroke-width:0.668807;stroke-linecap:butt;stroke-linejoin:miter;stroke:rgb(0%,0%,0%);stroke-opacity:1;stroke-miterlimit:4;" d="M 76.278195 206.478284 L 32.807153 176.394892 L 32.807153 149.650194 L 42.854705 152.988888 L 42.854705 169.717504 L 76.278195 191.78803 Z M 76.278195 206.478284 " transform="matrix(0.1143,0,0,0.111149,0.988416,0.616476)"/>
<path style="fill:none;stroke-width:2.439304;stroke-linecap:butt;stroke-linejoin:miter;stroke:rgb(0%,0%,0%);stroke-opacity:1;stroke-miterlimit:4;" d="M 96.339124 52.652341 L 96.339124 233.258127 " transform="matrix(0.1143,0,0,0.111149,0.988416,0.616476)"/>
<path style="fill-rule:nonzero;fill:rgb(0%,0%,0%);fill-opacity:1;stroke-width:0.668807;stroke-linecap:butt;stroke-linejoin:miter;stroke:rgb(0%,0%,0%);stroke-opacity:1;stroke-miterlimit:4;" d="M 106.386676 72.71965 L 159.905269 109.515575 L 159.905269 119.531658 L 106.386676 82.770877 Z M 106.386676 72.71965 " transform="matrix(0.1143,0,0,0.111149,0.988416,0.616476)"/>
<path style="fill-rule:nonzero;fill:rgb(0%,0%,0%);fill-opacity:1;stroke-width:0.668807;stroke-linecap:butt;stroke-linejoin:miter;stroke:rgb(0%,0%,0%);stroke-opacity:1;stroke-miterlimit:4;" d="M 106.386676 213.190817 L 159.905269 176.394892 L 159.905269 166.378809 L 106.386676 203.13959 Z M 106.386676 213.190817 " transform="matrix(0.1143,0,0,0.111149,0.988416,0.616476)"/>
<path style="fill-rule:nonzero;fill:rgb(0%,0%,0%);fill-opacity:1;stroke-width:0.668807;stroke-linecap:butt;stroke-linejoin:miter;stroke:rgb(0%,0%,0%);stroke-opacity:1;stroke-miterlimit:4;" d="M 106.386676 82.770877 L 106.386676 139.598967 L 116.400052 139.598967 L 116.400052 89.448265 Z M 106.386676 82.770877 " transform="matrix(0.1143,0,0,0.111149,0.988416,0.616476)"/>
<path style="fill-rule:nonzero;fill:rgb(0%,0%,0%);fill-opacity:1;stroke-width:0.668807;stroke-linecap:butt;stroke-linejoin:miter;stroke:rgb(0%,0%,0%);stroke-opacity:1;stroke-miterlimit:4;" d="M 106.386676 139.598967 L 106.386676 149.650194 L 159.905269 149.650194 L 159.905269 139.598967 Z M 106.386676 139.598967 " transform="matrix(0.1143,0,0,0.111149,0.988416,0.616476)"/>
<path style="fill-rule:nonzero;fill:rgb(0%,0%,0%);fill-opacity:1;stroke-width:0.668807;stroke-linecap:butt;stroke-linejoin:miter;stroke:rgb(0%,0%,0%);stroke-opacity:1;stroke-miterlimit:4;" d="M 159.905269 166.378809 L 159.905269 149.650194 L 149.857717 149.650194 L 149.857717 173.056198 Z M 159.905269 166.378809 " transform="matrix(0.1143,0,0,0.111149,0.988416,0.616476)"/>
<path style="fill-rule:nonzero;fill:rgb(0%,0%,0%);fill-opacity:1;stroke-width:0.668807;stroke-linecap:butt;stroke-linejoin:miter;stroke:rgb(0%,0%,0%);stroke-opacity:1;stroke-miterlimit:4;" d="M 106.386676 203.13959 L 106.386676 183.072281 L 116.400052 179.733586 L 116.400052 196.462202 Z M 106.386676 203.13959 " transform="matrix(0.1143,0,0,0.111149,0.988416,0.616476)"/>
<path style="fill-rule:nonzero;fill:rgb(0%,0%,0%);fill-opacity:1;stroke-width:0.668807;stroke-linecap:butt;stroke-linejoin:miter;stroke:rgb(0%,0%,0%);stroke-opacity:1;stroke-miterlimit:4;" d="M 159.905269 129.582885 L 149.857717 126.24419 L 149.857717 112.854269 L 159.905269 119.531658 Z M 159.905269 129.582885 " transform="matrix(0.1143,0,0,0.111149,0.988416,0.616476)"/>
</g>
</svg>
